<svg width="663" height="188" viewBox="0 0 663 188" fill="none" xmlns="http://www.w3.org/2000/svg">
<g clip-path="url(#clip0_105_315)">
<path d="M98.1 49.0199C95.93 49.0199 93.69 48.8599 91.41 48.5399V114.68H125.07V40.3899C117.46 45.0299 109.16 49.0199 98.1 49.0199Z" fill="#272E68"/>
<path d="M198.69 75.0299L226.07 38.3699H187.92L178.49 57.0699L169.21 38.3699H131.06L158.29 75.0299L128.06 114.68H166.22L178.49 94.4799L190.91 114.68H229.06L198.69 75.0299Z" fill="#272E68"/>
<path d="M334.54 38.0699V11.4299H262.72V114.68H296.39V80.7099H332.3V54.0799H296.39V38.0699H334.54Z" fill="#272E68"/>
<path d="M343.82 11.4299V114.68H377.48V11.4299H343.82Z" fill="#272E68"/>
<path d="M456.78 45.8499C450.05 39.8599 441.07 36.8699 425.36 36.8699C409.65 36.8699 396.18 41.3599 388.7 44.7999L396.93 66.0499C402.17 63.0599 411.9 59.3099 420.87 59.3099C429.84 59.3099 433.29 62.3099 433.29 66.4999V67.2499L415.64 67.9899C404.56 68.4399 385.71 72.7799 385.71 91.4799C385.71 110.18 400.67 116.47 414.89 116.47C424.61 116.47 430.6 111.68 434.34 107.94L435.09 114.68H466.96V72.7799C466.96 60.0599 463.52 51.8299 456.78 45.8499ZM433.59 92.9799C432.84 93.7299 430.6 95.9699 426.86 95.9699C423.12 95.9699 419.38 94.4799 419.38 89.9899C419.38 85.4999 423.27 84.1499 426.86 83.9999L433.59 83.5499V92.9799Z" fill="#272E68"/>
<path d="M531.29 38.3699L531.59 45.8499C528.3 42.1099 522.32 36.8699 509.6 36.8699C491.64 36.8699 474.44 48.8399 474.44 73.9799C474.44 99.1199 491.64 110.94 509.6 110.94C520.82 110.94 527.55 107.2 531.59 102.71V104.2C531.59 107.94 530.55 110.94 528.3 113.18C526.06 115.42 521.57 117.67 512.59 117.67C503.61 117.67 493.14 113.93 487.16 110.19L474.44 131.14C482.67 137.12 497.63 142.36 514.09 142.36C530.55 142.36 541.77 139.37 550.3 132.63C558.98 125.9 564.96 116.17 564.96 99.7099V38.3699H531.29ZM520.37 85.9499C513.64 85.9499 508.4 81.0099 508.4 74.2799C508.4 67.5499 513.64 62.7599 520.37 62.7599C527.1 62.7599 532.34 67.5399 532.34 74.2799C532.34 81.0199 527.11 85.9499 520.37 85.9499Z" fill="#272E68"/>
<path d="M635.58 73.98C632.59 70.99 628.4 68.74 624.66 67.25C620.92 65.75 618.37 65.15 613.88 63.8C609.4 62.61 605.65 61.56 605.65 59.76C605.65 58.12 606.85 57.22 609.84 57.22C615.53 57.22 624.21 59.61 631.84 64.4L640.97 45.55C636.78 42.86 626.9 36.72 608.65 36.72C590.4 36.72 576.48 46.45 576.48 62.31C576.48 78.17 587.7 82.21 590.69 83.26C593.68 84.45 596.53 85.35 599.67 86.25C602.81 87.15 612.39 89.24 612.39 91.93C612.39 94.03 610.14 94.33 608.05 94.33C605.96 94.33 593.68 93.13 583.21 86.25L571.84 106C583.21 114.68 596.38 116.62 607.15 116.62C617.92 116.62 625.85 114.38 631.84 109.89C637.82 105.4 641.86 98.97 641.86 90.74C641.86 82.51 638.57 76.97 635.58 73.98Z" fill="#272E68"/>
<path d="M184.59 20.35C177.28 18.67 170.89 17.95 165.21 17.95C140.53 17.95 129.28 31.5 114.73 38.37C109.79 40.71 104.46 42.27 98.1 42.27C96.07 42.27 93.94 42.11 91.68 41.77L91.41 40.7L81.16 0.0200195C92.22 7.44002 102.49 9.44002 112.48 9.44002C124.14 9.44002 135.43 6.72002 147.17 6.72002C158.91 6.72002 171.11 9.44002 184.59 20.35Z" fill="#E91D2D"/>
<path d="M83.93 80.7101C83.93 91.4801 78.69 101.21 70.46 107.64C62.24 113.93 51.91 116.47 39.94 116.47C27.97 116.47 14.2 113.18 0.139999 102.71L15.1 77.2701C24.68 85.3501 38.14 88.4901 42.63 88.4901C47.12 88.4901 50.26 87.1501 50.26 84.1501C50.26 81.1501 46.52 79.9601 42.78 78.7701C39.04 77.7201 30.81 75.0301 27.82 73.9801C24.83 72.7801 18.84 70.8401 13.61 66.3501C8.37 61.8601 4.18 55.5701 4.18 44.3501C4.18 33.1301 10.01 24.4501 16.15 19.3601C22.43 14.1301 32.76 10.3901 46.52 10.3901C58.33 10.3901 70.35 14.0101 79.19 19.7801C80.67 20.7301 82.05 21.7401 83.33 22.8101L81.03 27.0901L70.46 46.7501C62.68 39.8601 51.31 36.8701 45.93 36.8701C40.55 36.8701 37.55 37.9201 37.55 41.0601C37.55 44.2001 42.33 45.1001 44.73 45.8501C47.12 46.6001 53.41 48.3901 57 49.5901C60.59 50.7901 68.97 53.7801 74.21 58.2701C79.44 62.7601 83.93 69.7901 83.93 80.7101Z" fill="#272E68"/>
<path d="M23.71 147.99V157.01H11.97V159.4H23.11V168.19H11.97V170.63H24.17V179.75H0.139999V147.98H23.71V147.99Z" fill="#272E68"/>
<path d="M39.05 155.91V158.76C40.2 157.06 42.23 155.4 45.73 155.4C52.77 155.4 54.62 159.87 54.62 165.76V179.76H42.74V168.2C42.74 166.36 42.65 164.98 41.08 164.98C39.42 164.98 39.28 166.27 39.28 168.2V179.76H27.4V155.91H39.05Z" fill="#272E68"/>
<path d="M75.74 179.53C74.63 179.81 71.87 180.36 68.7 180.36C65.75 180.36 63.5 179.85 61.96 178.56C60.32 177.19 59.49 174.93 59.49 171.47V164.47H56.27V155.91H59.49V150.34H71.32V155.91H76.06V164.47H71.32V169.63C71.32 170.07 71.43 170.35 71.62 170.52C71.9 170.78 72.34 170.82 72.88 170.82C74.03 170.82 75.23 170.54 75.23 170.54L75.74 179.52V179.53Z" fill="#272E68"/>
<path d="M90.48 180.36C82.84 180.36 77.08 176.12 77.08 168.16C77.08 160.2 83.3 155.41 91.03 155.41C98.76 155.41 103.97 159.97 103.97 167.15C103.97 168.9 103.88 170.28 103.79 170.65H87.85C88.4 172.3 90.37 172.86 92.23 172.86C94.72 172.86 96.6 172.54 99.09 171.06L103.05 176.31C101.53 177.92 97.75 180.36 90.48 180.36ZM91.12 162.27C89.05 162.27 87.81 163.61 87.67 165.22H94.39C94.39 163.33 93.01 162.27 91.12 162.27Z" fill="#272E68"/>
<path d="M117.92 155.91V159.59C118.89 156.87 121.37 155.4 123.95 155.4C125.61 155.4 126.25 155.91 126.25 155.91L125.61 166.59H125.15C124.64 166.36 123.49 165.9 122.07 165.9C120.76 165.9 119.81 166.38 119.17 167.2C118.47 168.11 118.15 169.44 118.15 171.01V179.76H106.27V155.91H117.92Z" fill="#272E68"/>
<path d="M146.42 179.53C145.31 179.81 142.55 180.36 139.38 180.36C136.43 180.36 134.18 179.85 132.64 178.56C131 177.19 130.17 174.93 130.17 171.47V164.47H126.95V155.91H130.17V150.34H142V155.91H146.74V164.47H142V169.63C142 170.07 142.11 170.35 142.3 170.52C142.58 170.78 143.02 170.82 143.56 170.82C144.71 170.82 145.91 170.54 145.91 170.54L146.42 179.52V179.53Z" fill="#272E68"/>
<path d="M156.32 180.36C151.76 180.36 147.76 177.69 147.76 172.49C147.76 167.29 153.56 165.58 158.58 165.26L163.55 164.94V164.66C163.55 163.74 162.21 163 159.54 163C156.87 163 153.83 163.78 151.71 164.84L149.41 158.16C152.26 156.73 156.92 155.4 161.57 155.4C165.9 155.4 169.31 156.27 171.56 158.07C173.86 160 174.97 162.9 174.97 167.05V179.76H163.74L163.51 177.78C161.81 179.76 159 180.36 156.33 180.36H156.32ZM159.08 171.71C159.08 173.05 160.14 173.55 161.29 173.55C162.44 173.55 163.41 172.91 163.64 172.68V169.69L161.38 169.78C160.27 169.83 159.08 170.33 159.08 171.71Z" fill="#272E68"/>
<path d="M184.18 145C188 145 190.4 147.12 190.4 150.48C190.4 153.84 188.01 155.96 184.18 155.96C180.35 155.96 177.96 153.84 177.96 150.48C177.96 147.12 180.35 145 184.18 145ZM190.12 156.51V179.76H178.24V156.51H190.12Z" fill="#272E68"/>
<path d="M205.22 155.91V158.76C206.37 157.06 208.4 155.4 211.9 155.4C218.94 155.4 220.79 159.87 220.79 165.76V179.76H208.91V168.2C208.91 166.36 208.82 164.98 207.25 164.98C205.59 164.98 205.45 166.27 205.45 168.2V179.76H193.57V155.91H205.22Z" fill="#272E68"/>
<path d="M235.84 155.91V158.86C237.22 157.02 239.52 155.41 242.33 155.41C245.14 155.41 247.63 156.1 249.13 158.92C251.1 156.49 253.43 155.41 256.92 155.41C262.68 155.41 265.44 158.82 265.44 165.31V179.77H253.61V167.84C253.61 165.81 253.29 164.99 252.14 164.99C250.99 164.99 250.71 165.91 250.71 167.66V179.77H238.88V167.84C238.88 166 238.65 164.99 237.41 164.99C236.3 164.99 236.03 165.91 236.03 167.66V179.77H224.15V155.92H235.85L235.84 155.91Z" fill="#272E68"/>
<path d="M281.19 180.36C273.55 180.36 267.79 176.12 267.79 168.16C267.79 160.2 274.01 155.41 281.74 155.41C289.47 155.41 294.68 159.97 294.68 167.15C294.68 168.9 294.59 170.28 294.5 170.65H278.56C279.11 172.3 281.08 172.86 282.94 172.86C285.43 172.86 287.31 172.54 289.8 171.06L293.76 176.31C292.24 177.92 288.46 180.36 281.19 180.36ZM281.84 162.27C279.77 162.27 278.53 163.61 278.39 165.22H285.11C285.11 163.33 283.73 162.27 281.84 162.27Z" fill="#272E68"/>
<path d="M308.64 155.91V158.76C309.79 157.06 311.82 155.4 315.32 155.4C322.36 155.4 324.21 159.87 324.21 165.76V179.76H312.33V168.2C312.33 166.36 312.24 164.98 310.67 164.98C309.01 164.98 308.87 166.27 308.87 168.2V179.76H296.99V155.91H308.64Z" fill="#272E68"/>
<path d="M345.34 179.53C344.23 179.81 341.47 180.36 338.29 180.36C335.34 180.36 333.09 179.85 331.55 178.56C329.91 177.19 329.08 174.93 329.08 171.47V164.47H325.86V155.91H329.08V150.34H340.91V155.91H345.65V164.47H340.91V169.63C340.91 170.07 341.02 170.35 341.21 170.52C341.49 170.78 341.93 170.82 342.47 170.82C343.62 170.82 344.82 170.54 344.82 170.54L345.33 179.52L345.34 179.53Z" fill="#272E68"/>
<path d="M373.56 180.32C364.08 180.32 356.34 174.7 356.34 163.93C356.34 153.16 364.03 147.54 373.56 147.54C380.51 147.54 383.97 150.26 383.97 150.26L380.98 160.3C380.98 160.3 378.17 158.14 374.4 158.14C371.22 158.14 368.51 160.17 368.51 163.8C368.51 167.43 371.13 169.51 374.4 169.51C377.44 169.51 379.97 168.13 381.49 166.98L384.76 176.51C383.84 177.38 380.66 180.33 373.57 180.33L373.56 180.32Z" fill="#272E68"/>
<path d="M399.58 155.41C407.73 155.41 413.76 159.78 413.76 167.89C413.76 176 407.73 180.37 399.58 180.37C391.43 180.37 385.4 175.95 385.4 167.89C385.4 159.83 391.43 155.41 399.58 155.41ZM402.61 167.93C402.61 165.49 401.51 163.88 399.57 163.88C397.63 163.88 396.53 165.49 396.53 167.93C396.53 170.09 397.63 171.71 399.57 171.71C401.51 171.71 402.61 170.1 402.61 167.93Z" fill="#272E68"/>
<path d="M427.75 155.91V159.59C428.72 156.87 431.2 155.4 433.78 155.4C435.44 155.4 436.08 155.91 436.08 155.91L435.44 166.59H434.98C434.47 166.36 433.32 165.9 431.9 165.9C430.59 165.9 429.64 166.38 429 167.2C428.3 168.11 427.99 169.44 427.99 171.01V179.76H416.11V155.91H427.76H427.75Z" fill="#272E68"/>
<path d="M449.03 155.91V158.26C450.64 156.56 452.99 155.31 456.26 155.31C462.98 155.31 467.13 160.74 467.13 167.79C467.13 174.84 462.99 180.27 456.26 180.27C451.98 180.27 450.23 178.75 449.68 178.06C449.73 179.22 449.82 180.42 449.82 181.59V187.69H437.98V155.92H449.03V155.91ZM455.43 167.89C455.43 165.59 454.1 164.21 452.39 164.21C450.92 164.21 449.44 165.41 449.44 167.89C449.44 170.37 450.78 171.67 452.39 171.67C454.28 171.67 455.43 170.15 455.43 167.89Z" fill="#272E68"/>
<path d="M482.64 155.41C490.79 155.41 496.82 159.78 496.82 167.89C496.82 176 490.79 180.37 482.64 180.37C474.49 180.37 468.46 175.95 468.46 167.89C468.46 159.83 474.49 155.41 482.64 155.41ZM485.68 167.93C485.68 165.49 484.58 163.88 482.64 163.88C480.7 163.88 479.6 165.49 479.6 167.93C479.6 170.09 480.7 171.71 482.64 171.71C484.58 171.71 485.68 170.1 485.68 167.93Z" fill="#272E68"/>
<path d="M510.82 155.91V159.59C511.79 156.87 514.27 155.4 516.85 155.4C518.51 155.4 519.15 155.91 519.15 155.91L518.51 166.59H518.05C517.54 166.36 516.39 165.9 514.97 165.9C513.66 165.9 512.71 166.38 512.07 167.2C511.37 168.11 511.06 169.44 511.06 171.01V179.76H499.18V155.91H510.83H510.82Z" fill="#272E68"/>
<path d="M527.67 180.36C523.11 180.36 519.11 177.69 519.11 172.49C519.11 167.29 524.91 165.58 529.93 165.26L534.9 164.94V164.66C534.9 163.74 533.56 163 530.89 163C528.22 163 525.18 163.78 523.06 164.84L520.76 158.16C523.61 156.73 528.26 155.4 532.92 155.4C537.25 155.4 540.65 156.27 542.91 158.07C545.21 160 546.32 162.9 546.32 167.05V179.76H535.09L534.86 177.78C533.16 179.76 530.35 180.36 527.68 180.36H527.67ZM530.43 171.71C530.43 173.05 531.49 173.55 532.64 173.55C533.79 173.55 534.76 172.91 534.99 172.68V169.69L532.73 169.78C531.62 169.83 530.43 170.33 530.43 171.71Z" fill="#272E68"/>
<path d="M560.36 180.36C557.41 180.36 555.16 179.85 553.62 178.56C551.98 177.19 551.15 174.93 551.15 171.47V164.47H547.93V155.91H551.15V150.34H562.98V155.91H567.72V164.47H562.98V169.63C562.98 170.07 563.09 170.35 563.28 170.52C563.56 170.78 564 170.82 564.54 170.82C565.69 170.82 566.89 170.54 566.89 170.54L567.4 179.52C566.3 179.8 563.53 180.35 560.36 180.35V180.36Z" fill="#272E68"/>
<path d="M575.7 145C579.52 145 581.92 147.12 581.92 150.48C581.92 153.84 579.53 155.96 575.7 155.96C571.87 155.96 569.48 153.84 569.48 150.48C569.48 147.12 571.87 145 575.7 145ZM581.63 156.51V179.76H569.75V156.51H581.63Z" fill="#272E68"/>
<path d="M598.12 155.41C606.27 155.41 612.3 159.78 612.3 167.89C612.3 176 606.27 180.37 598.12 180.37C589.97 180.37 583.94 175.95 583.94 167.89C583.94 159.83 589.97 155.41 598.12 155.41ZM601.16 167.93C601.16 165.49 600.06 163.88 598.12 163.88C596.18 163.88 595.08 165.49 595.08 167.93C595.08 170.09 596.18 171.71 598.12 171.71C600.06 171.71 601.16 170.1 601.16 167.93Z" fill="#272E68"/>
<path d="M626.3 155.91V158.76C627.45 157.06 629.48 155.4 632.98 155.4C640.02 155.4 641.87 159.87 641.87 165.76V179.76H629.99V168.2C629.99 166.36 629.9 164.98 628.33 164.98C626.67 164.98 626.53 166.27 626.53 168.2V179.76H614.65V155.91H626.3Z" fill="#272E68"/>
<path d="M650.24 40.1601H647.75V48.0301H645.48V40.1601H642.99V38.3701H650.25V40.1601H650.24Z" fill="#272E68"/>
<path d="M662.43 48.0301H660.2L659.82 41.4501H659.79L657.72 48.0301H655.93L653.84 41.4501H653.8L653.45 48.0301H651.22L651.95 38.3601H654.81L656.83 44.7201H656.86L658.85 38.3601H661.72L662.43 48.0301Z" fill="#272E68"/>
</g>
<defs>
<clipPath id="clip0_105_315">
<rect width="663" height="188" fill="white"/>
</clipPath>
</defs>
</svg>
